<svg version="1.1" xmlns="http://www.w3.org/2000/svg" xmlns:xlink="http://www.w3.org/1999/xlink" x="0px" y="0px" viewBox="0 0 1000 1000" enable-background="new 0 0 1000 1000" xml:space="preserve">

<g><g><g><path class= "SVGpath" d="M855.3,244.9c-0.1-4.5-1.5-8.9-4.6-12.4l-189-215.8c0-0.1-0.1-0.1-0.1-0.1c-1.1-1.3-2.4-2.3-3.8-3.2c-0.4-0.3-0.8-0.5-1.3-0.8c-1.2-0.7-2.5-1.2-3.8-1.6c-0.4-0.1-0.7-0.2-1-0.3c-1.4-0.3-2.9-0.5-4.4-0.5H182.9c-21.2,0-38.4,17.2-38.4,38.4v903.1c0,21.2,17.2,38.4,38.4,38.4h634.1c21.2,0,38.4-17.2,38.4-38.4V247C855.5,246.3,855.4,245.6,855.3,244.9z M330.5,922.2l-48.7-85.9l-17.1,21v64.9h-44.6v-199h44.6v88h0.9c4.4-7.7,9.1-14.8,13.6-21.8l45.2-66.1h55.2L313.7,808l69.4,114.3H330.5L330.5,922.2z M572.6,922.2l-2.9-76.2c-0.9-23.9-1.8-52.8-1.8-81.8H567c-6.2,25.4-14.5,53.7-22.1,77.1L520.6,919h-35.1l-21.3-77.1c-6.5-23.3-13.3-51.7-18-77.7h-0.6c-1.2,26.9-2.1,57.6-3.5,82.4l-3.5,75.6h-41.6l12.7-199h59.9l19.5,66.4c6.2,23,12.4,47.8,16.8,71.1h0.9c5.6-23,12.4-49.3,18.9-71.4l21.3-66.1h58.8l10.9,199L572.6,922.2L572.6,922.2z M775.4,922.2H651.1v-199h45.2v161.2h79.1V922.2L775.4,922.2z M182.9,662.5V48.4h445.2v196.6c0,10.6,8.6,19.2,19.2,19.2h169.7l0,398.3H182.9z"/><g><path d="M494,124.8c128.9-0.5,236.4,105,236.2,236.5C729.9,489.5,624.2,598,492,597c-129.6-1-234.3-109.6-233.8-237.2C258.6,230.9,364.9,124.4,494,124.8z M284.8,296.8c0.8,0.5,1.5,1.1,2.3,1.6c2.3-1.4,4.9-2.6,7-4.3c4.7-3.8,9-8,13.7-11.8c27.8-23.1,58-29.8,91.4-13c11.3,5.7,22.6,11.6,33.1,18.6c46.5,30.8,91.9,63.2,139.2,92.8c37.4,23.5,78.1,40.2,121.8,48.7c6.8,1.3,9.8-0.4,11.1-6.5c1.8-8.2,2.8-16.6,5-24.7c1.5-5.3-0.5-7.3-5-8.3c-23.3-5.5-44.6-15.8-63.2-30.3c-33.9-26.5-66.9-54.2-99.8-82c-22.8-19.3-44.4-39.9-67.1-59.3c-30.8-26.3-66.9-31.1-105.3-23.4c-9.5,1.9-20.6,4-27.3,10.1c-22.9,20.9-41,45.8-51.8,75.2C287.9,285.6,286.5,291.3,284.8,296.8z M674.6,484.3c-0.9-0.9-1.7-1.9-2.6-2.8c-2.8,0.7-5.6,1.3-8.4,2.1c-29.7,8.1-59.8,15.2-90.6,13.7c-26.6-1.3-53.2-5-79.4-9.9c-45.2-8.6-87.1-27.4-129.5-44.8c-13.4-5.5-27.9-10.3-42.2-11.2c-19.1-1.3-29.6,18-20.5,34.6c21.4,38.8,51.7,68.7,90.9,89.4c3.1,1.7,6.7,2.4,11.9,4.3c-1-5.2-1.5-8-2.2-10.8c-5.2-20.6,3.2-29.2,24.4-24.9c2.9,0.6,5.9,1.2,8.8,2c50.8,13.1,102.2,19.3,154.6,11.4c27.7-4.2,54.8-9.6,72.1-35.1C665.8,496,670.3,490.2,674.6,484.3z M431.6,151.9c0.2,1.3,0.3,2.5,0.5,3.8c2.2,0.4,4.4,1,6.6,1.1c11.4,0.6,22.8,1,34.2,1.7c41.7,2.5,78.6,17.5,106.8,48.2c22,23.8,40.5,50.9,61.2,75.9c9.1,11.1,19.2,21.6,30.2,30.9c8.2,7,18.1,6,25,0.3c7.6-6.2,8.8-12.1,4.9-23.6c-13.7-40.6-37.6-74.2-71.4-100.1c-49-37.6-104.5-53.5-166.1-45.3C452.7,146.3,442.2,149.5,431.6,151.9z"/></g></g></g><g></g><g></g><g></g><g></g><g></g><g></g><g></g><g></g><g></g><g></g><g></g><g></g><g></g><g></g><g></g></g>
</svg>